<?xml version="1.0" standalone="no"?>
<!DOCTYPE svg PUBLIC "-//W3C//DTD SVG 20010904//EN" "http://www.w3.org/TR/2001/REC-SVG-20010904/DTD/svg10.dtd">
<!-- Created using Krita: https://krita.org -->
<svg xmlns="http://www.w3.org/2000/svg" 
    xmlns:xlink="http://www.w3.org/1999/xlink"
    xmlns:krita="http://krita.org/namespaces/svg/krita"
    xmlns:sodipodi="http://sodipodi.sourceforge.net/DTD/sodipodi-0.dtd"
    width="105.326pt"
    height="105.326pt"
    viewBox="0 0 105.326 105.326">
<defs/>
<path id="shape0" transform="matrix(-1.00271620677425 0 0 -0.852256866009343 52.7343951338503 62.5371586876425)" fill="none" stroke="#ffffff" stroke-width="6.58285714285714" stroke-linecap="round" stroke-linejoin="miter" stroke-miterlimit="0" d="M0 0L0 54.3595"/><path id="shape1" transform="matrix(1.00000013675919 0 0 1.00000013675919 13.1657160862467 72.4114335228925)" fill="none" stroke="#ffffff" stroke-width="6.58285714285714" stroke-linecap="round" stroke-linejoin="miter" stroke-miterlimit="0" d="M0 0L0 19.7486"/><path id="shape2" transform="matrix(1.00000013675919 0 0 1.00000013675919 92.1600126037266 72.4114335228925)" fill="none" stroke="#ffffff" stroke-width="6.58285714285714" stroke-linecap="round" stroke-linejoin="miter" stroke-miterlimit="0" d="M0 0L0 19.7486"/><path id="shape3" transform="matrix(1.00000013675919 0 0 1.00000013675919 13.1657160862467 92.1600126037266)" fill="none" stroke="#ffffff" stroke-width="6.58285714285714" stroke-linecap="round" stroke-linejoin="miter" stroke-miterlimit="0" d="M78.9943 0L0 0"/><path id="shape4" transform="matrix(-1.33695494236566 0 0 -1.42233812190779 78.9943110637708 32.9143127665258)" fill="none" stroke="#ffffff" stroke-width="4.93714285714286" stroke-linecap="round" stroke-linejoin="miter" stroke-miterlimit="2.05714297294617" d="M19.6416 13.8846C13.0944 9.25639 6.54719 4.62819 0 0"/><path id="shape5" transform="matrix(-1.33695494236566 0 0 -1.43413602591423 52.7344187467635 32.8918839596245)" fill="none" stroke="#ffffff" stroke-width="4.93714285714286" stroke-linecap="round" stroke-linejoin="miter" stroke-miterlimit="2.05714297294617" d="M0 13.7391L19.7486 0"/><path id="shape31" transform="matrix(1.0000001210831 0 0 1.0000001210831 13.1657151859805 72.3739874215322)" fill="none" stroke="#ffffff" stroke-width="6.58285714285714" stroke-linecap="round" stroke-linejoin="miter" stroke-miterlimit="0" d="M78.9943 0L0 0"/><circle id="shape01" transform="matrix(1.00000006837959 0 0 1.00000006837959 19.7485727789706 78.9942911158826)" r="3.29142857142857" cx="3.29142857142857" cy="3.29142857142857" fill="#ffffff" fill-rule="evenodd" stroke="#ffffff" stroke-width="3.29142857142857" stroke-linecap="square" stroke-linejoin="bevel"/>
</svg>
