<?xml version="1.0" standalone="no"?>
<!DOCTYPE svg PUBLIC "-//W3C//DTD SVG 20010904//EN" "http://www.w3.org/TR/2001/REC-SVG-20010904/DTD/svg10.dtd">
<!-- Created using Krita: https://krita.org -->
<svg xmlns="http://www.w3.org/2000/svg" 
    xmlns:xlink="http://www.w3.org/1999/xlink"
    xmlns:krita="http://krita.org/namespaces/svg/krita"
    xmlns:sodipodi="http://sodipodi.sourceforge.net/DTD/sodipodi-0.dtd"
    width="105.326pt"
    height="105.326pt"
    viewBox="0 0 105.326 105.326">
<defs>
  <linearGradient id="gradient0" gradientTransform="matrix(-0.31381 -0.63036916892363 -2.71348194728608 0.86392 1.19980485766814 -11.5982857929921)" gradientUnits="objectBoundingBox" x1="-17.1125572762725" y1="2.14468968717161" x2="-15.5171777902605" y2="2.14468968717161" spreadMethod="pad">
   <stop stop-color="#404040" offset="0" stop-opacity="1"/>
   <stop stop-color="#999999" offset="1" stop-opacity="1"/>
  </linearGradient>
  <linearGradient id="gradient1" gradientTransform="matrix(1.1878 0 0 1.351 3.81364792538497 -37.4799282400696)" gradientUnits="objectBoundingBox" x1="-2.77648313776975" y1="28.0842273122644" x2="-2.41270752988157" y2="28.0842273122644" spreadMethod="pad">
   <stop stop-color="#404040" offset="0" stop-opacity="1"/>
   <stop stop-color="#999999" offset="1" stop-opacity="1"/>
  </linearGradient>
 </defs>
<path id="shape0" transform="matrix(-0.0818206345639495 -0.021891993524731 -0.0219229694802865 0.0817050264871311 85.5771545524695 25.3502837154719)" fill="#2e3436" stroke="#000000" stroke-opacity="0" stroke-width="0" stroke-linecap="square" stroke-linejoin="bevel" d="M215.277 0.0114257C199.024 0.197566 184.678 4.40343 172.82 9.33373C170.282 9.67299 167.835 10.5043 165.615 11.781L53.725 76.537C26.841 87.335 7.18499 110.172 1.75799 138.242C-0.723315 150.056 -0.534315 162.655 2.04899 175.674C2.15389 176.203 2.28599 176.875 2.45519 177.66L2.45519 177.682C2.67379 178.709 2.87979 179.564 3.03529 180.225C3.30089 181.354 3.62539 182.744 4.06069 184.344C4.40909 185.632 4.50069 185.913 4.16619 184.699C4.12819 184.56 4.22619 184.913 4.17819 184.74L80.9042 464.85C81.0917 467.358 81.758 469.806 82.8671 472.063C82.9191 472.261 82.9321 472.282 82.8771 472.082C82.8914 472.11 82.9057 472.138 82.9201 472.166L144.836 698.326C144.876 698.453 144.918 698.579 144.961 698.705C145.167 699.44 145.343 700.032 145.426 700.322C145.437 700.361 145.449 700.401 145.461 700.44C145.451 700.42 145.564 700.858 145.834 701.742C145.939 702.111 146.107 702.749 146.414 703.756C146.424 703.782 146.414 703.77 146.426 703.795C146.436 703.819 146.436 703.818 146.44 703.842C147.388 706.982 147.392 706.973 146.508 704.018C147.084 705.889 147.671 707.652 148.24 709.324C148.24 709.324 148.241 709.324 148.24 709.334C148.24 709.344 148.24 709.345 148.25 709.35C148.534 710.187 148.782 710.875 148.973 711.417C148.976 711.424 148.98 711.431 148.983 711.438C149.267 712.241 149.633 713.329 150.131 714.666C150.139 714.686 150.147 714.706 150.154 714.725C150.434 715.468 150.47 715.549 150.242 714.952L150.201 714.843C150.836 716.539 151.501 718.261 152.213 720.011C152.213 720.011 152.214 720.011 152.213 720.011C152.214 720.011 152.213 720.011 152.213 720.021C152.545 720.836 152.719 721.217 152.692 721.151C152.695 721.157 152.698 721.163 152.702 721.169C153.171 722.303 153.708 723.624 154.372 725.13C154.38 725.15 154.388 725.17 154.397 725.189C155.176 726.944 155.201 726.984 154.473 725.334C154.759 725.983 154.941 726.362 154.994 726.48C175.506 772.231 210.241 809.706 252.81 811.816L252.8 811.816L292.8 813.816C292.803 813.816 292.807 813.816 292.81 813.816L360.998 817.191C361.262 817.203 361.527 817.21 361.791 817.211C361.929 817.211 361.953 817.246 362.096 817.246L361.125 817.223L401 819.192C411.024 819.689 420.778 817.501 429.285 813.225C430.526 812.815 431.722 812.281 432.857 811.634C464.813 793.144 499.392 773.965 531.527 754.29L531.107 754.54L545.419 746.258C546.519 745.619 547.555 744.875 548.511 744.036C556.679 739.921 563.675 733.879 568.933 726.614C568.933 726.61 568.933 726.607 568.933 726.604L568.933 726.594C582.86 708.88 586.453 685.524 583.47 660.625L583.501 661.164C583.237 655.105 582.332 648.923 580.628 642.705C580.625 642.694 580.622 642.683 580.618 642.672L578.577 635.271L578.577 637.904C578.577 636.078 578.322 634.261 577.821 632.506L577.788 632.388L566.317 590.46C566.317 590.457 566.317 590.454 566.317 590.45L514.499 401.39L514.603 401.91C514.513 401.461 514.407 401.016 514.286 400.574L437.1 118.774L437.1 118.766C436.921 118.109 436.877 117.988 436.884 118.02L436.87 117.969L434.258 108.426C434.258 108.424 434.258 108.422 434.258 108.42C426.824 81.2812 407.609 58.3592 383.088 40.6112C356.415 19.3742 323.448 5.22621 289.192 3.52721C289.189 3.5272 289.186 3.5272 289.182 3.52721L282.288 3.18932C279.685 2.94898 277.024 2.72701 274.255 2.58971L235.849 0.683506C233.264 0.555336 230.803 0.513026 228.417 0.492106L221.044 0.122966C221.041 0.122298 221.037 0.121632 221.034 0.120966C219.161 0.0281657 217.241 -0.0167943 215.272 0.00573574ZM91.0771 446.101C84.428 449.738 80.458 456.87 80.8701 464.437L78.0595 453.201ZM82.208 469.572L82.218 469.59L82.218 469.58C82.218 469.57 82.2179 469.58 82.218 469.568ZM545.968 745.282L545.435 745.575L544.441 746.034C544.972 745.823 545.446 745.511 545.968 745.282ZM355.148 815.989C355.159 815.989 355.663 816.297 356.699 816.601C355.606 816.292 355.136 815.985 355.148 815.989Z"/><path id="shape1" transform="matrix(-0.0818206345639495 -0.021891993524731 -0.0219229694802865 0.0817050264871311 83.3287209005621 27.2692860707941)" fill="url(#gradient0)" stroke="#000000" stroke-opacity="0" stroke-width="0" stroke-linecap="square" stroke-linejoin="bevel" d="M419.669 677.998C434.186 730.993 399.589 771.404 342.147 768.556L273.971 765.16C216.529 762.312 158.601 717.337 144.081 664.34L3.3113 150.44C-7.6607 110.386 9.3974 77.54 43.1853 65.118L155.735 0L172.445 66.726C221.45 78.567 266.37 118.34 278.905 164.097Z"/><path id="shape2" transform="matrix(-0.0818206345639495 -0.021891993524731 -0.0219229694802865 0.0817050264871311 68.7855848186565 55.1514673960055)" fill="#a8a8a8" stroke="#000000" stroke-opacity="0" stroke-width="0" stroke-linecap="square" stroke-linejoin="bevel" d="M439.542 296.927L435.275 337.593L322.635 402.765L322.363 402.757C316.471 406.317 309.501 408.105 301.612 407.713L153.422 400.345C118.13 398.595 78.0508 354.502 63.5258 301.478L0.8238 72.5775L0.2128 71.7284L0.5394 71.5394L0 69.5704L3.5061 69.74L119.596 0L183.039 78.671L275.597 83.2631L338.035 311.203L439.535 296.935Z"/><rect id="shape3" transform="matrix(0.0427602398201017 -0.0730184011267447 0.0828056644780388 0.0178188700509999 21.6320970958237 72.4607532114468)" fill="url(#gradient1)" stroke="#000000" stroke-opacity="0" stroke-width="0" stroke-linecap="square" stroke-linejoin="bevel" width="731.22" height="275.92" rx="88.629" ry="118.73"/><path id="shape4" transform="matrix(-0.0818206345639495 -0.021891993524731 -0.0219229694802865 0.0817050264871311 59.0035435484626 52.5759777410694)" fill="#ededed" stroke="#000000" stroke-opacity="0" stroke-width="0" stroke-linecap="square" stroke-linejoin="bevel" d="M339.115 245.555C353.64 298.579 336.922 339.856 301.631 338.106L153.441 330.758C118.149 329.008 78.047 284.915 63.522 231.89L0 0L275.6 13.665Z"/><path id="shape5" transform="matrix(-0.0818206345639495 -0.021891993524731 -0.0219229694802865 0.0817050264871311 56.3705085692312 53.7568266053463)" fill="#ffffff" stroke="#000000" stroke-opacity="0" stroke-width="0" stroke-linecap="square" stroke-linejoin="bevel" d="M288.903 212.026C301.37 257.539 287.245 292.839 257.231 291.175L131.201 284.192C101.187 282.529 66.99 244.552 54.523 199.04L0 0L234.38 12.987Z"/><path id="shape6" transform="matrix(-0.0818206345639495 -0.021891993524731 -0.0219229694802865 0.0817050264871311 83.5150453893389 26.7701843826034)" fill="none" stroke="#000000" stroke-width="4" stroke-linecap="butt" stroke-linejoin="miter" stroke-miterlimit="2" d="M539.264 618.236C551.618 663.416 544.961 694.622 516.116 708.77C480.739 731.226 440.523 753.379 403.356 774.883L403.083 774.875C397.192 778.434 390.221 780.222 382.332 779.831L342.44 777.862C342.399 777.86 342.368 777.847 342.327 777.845L274.151 774.449L234.146 772.463C198.854 770.713 158.775 726.62 144.25 673.595L81.5483 444.695C55.5653 349.872 29.4983 254.685 3.4893 159.735C-7.4827 119.681 7.8574 93.0969 43.3623 74.4129L141.443 17.6639C153.399 10.0935 175.925 -1.12311 200.415 0.0908877L268.591 3.48689C326.033 6.33499 383.951 51.2739 398.471 104.267L475.716 386.257L539.252 618.207C539.252 618.219 539.262 618.231 539.262 618.242Z"/>
</svg>
