<?xml version="1.0" standalone="no"?>
<!DOCTYPE svg PUBLIC "-//W3C//DTD SVG 20010904//EN" "http://www.w3.org/TR/2001/REC-SVG-20010904/DTD/svg10.dtd">
<!-- Created using Krita: https://krita.org -->
<svg xmlns="http://www.w3.org/2000/svg" 
    xmlns:xlink="http://www.w3.org/1999/xlink"
    xmlns:krita="http://krita.org/namespaces/svg/krita"
    xmlns:sodipodi="http://sodipodi.sourceforge.net/DTD/sodipodi-0.dtd"
    width="13.1657pt"
    height="13.1657pt"
    viewBox="0 0 13.1657 13.1657">
<defs/>
<path id="shape0" transform="matrix(1.00000017094899 0 0 0.852256895147824 52.6628661455191 13.1657173292181)" fill="none" stroke="#ffffff" stroke-width="6.58285714285714" stroke-linecap="round" stroke-linejoin="miter" stroke-miterlimit="0" d="M0 0L0 54.3595"/><path id="shape1" transform="matrix(1.00000017094899 0 0 1.00000017094899 13.1657165363798 72.4114359986245)" fill="none" stroke="#ffffff" stroke-width="6.58285714285714" stroke-linecap="round" stroke-linejoin="miter" stroke-miterlimit="0" d="M0 0L0 19.7486"/><path id="shape2" transform="matrix(1.00000017094899 0 0 1.00000017094899 92.1600157546585 72.4114359986245)" fill="none" stroke="#ffffff" stroke-width="6.58285714285714" stroke-linecap="round" stroke-linejoin="miter" stroke-miterlimit="0" d="M0 0L0 19.7486"/><path id="shape3" transform="matrix(1.00000017094899 0 0 1.00000017094899 13.1657165363798 92.1600157546585)" fill="none" stroke="#ffffff" stroke-width="6.58285714285714" stroke-linecap="round" stroke-linejoin="miter" stroke-miterlimit="0" d="M78.9943 0L0 0"/><path id="shape4" transform="matrix(1.33333356126531 0 0 1.42233817053723 26.4740798851426 42.7885642631336)" fill="none" stroke="#ffffff" stroke-width="4.93714285714286" stroke-linecap="round" stroke-linejoin="miter" stroke-miterlimit="2.05714297294617" d="M19.6416 13.8846C13.0944 9.25639 6.54719 4.62819 0 0"/><path id="shape5" transform="matrix(1.33333356126531 0 0 1.43413607494704 52.6628425965657 42.8109930708017)" fill="none" stroke="#ffffff" stroke-width="4.93714285714286" stroke-linecap="round" stroke-linejoin="miter" stroke-miterlimit="2.05714297294617" d="M0 13.7391L19.7486 0"/><path id="shape31" transform="matrix(1.0000001552729 0 0 1.0000001552729 13.1657156361136 72.373989895984)" fill="none" stroke="#ffffff" stroke-width="6.58285714285714" stroke-linecap="round" stroke-linejoin="miter" stroke-miterlimit="0" d="M78.9943 0L0 0"/><circle id="shape01" transform="matrix(1.00000010256939 0 0 1.00000010256939 19.7485734541703 78.9942938166812)" r="3.29142857142857" cx="3.29142857142857" cy="3.29142857142857" fill="#ffffff" fill-rule="evenodd" stroke="#ffffff" stroke-width="3.29142857142857" stroke-linecap="square" stroke-linejoin="bevel"/>
</svg>
