<?xml version="1.0" standalone="no"?>
<!DOCTYPE svg PUBLIC "-//W3C//DTD SVG 20010904//EN" "http://www.w3.org/TR/2001/REC-SVG-20010904/DTD/svg10.dtd">
<!-- Created using Krita: https://krita.org -->
<svg xmlns="http://www.w3.org/2000/svg" 
    xmlns:xlink="http://www.w3.org/1999/xlink"
    xmlns:krita="http://krita.org/namespaces/svg/krita"
    xmlns:sodipodi="http://sodipodi.sourceforge.net/DTD/sodipodi-0.dtd"
    width="13.1657pt"
    height="13.1657pt"
    viewBox="0 0 13.1657 13.1657">
<defs/>
<path id="shape0" transform="matrix(-1.0000001025694 0 0 -1.0000001025694 92.1600094527953 92.1600094527949)" fill="none" stroke="#ffffff" stroke-width="6.58285714285714" stroke-linecap="round" stroke-linejoin="miter" stroke-miterlimit="2.05714297294617" d="M0 0L0 78.9943"/><path id="shape1" transform="matrix(-1.0000001025694 0 0 -1.0000001025694 92.1600094527951 13.1657156361132)" fill="none" stroke="#ffffff" stroke-width="6.58285714285714" stroke-linecap="round" stroke-linejoin="miter" stroke-miterlimit="2.05714297294617" d="M0 0L78.9943 0"/><path id="shape2" transform="matrix(-1.0000001025694 0 0 -1.0000001025694 13.1657156361137 78.9942938166812)" fill="none" stroke="#ffffff" stroke-width="6.58285714285714" stroke-linecap="round" stroke-linejoin="miter" stroke-miterlimit="2.05714297294617" d="M0 65.8286L0 0"/><path id="shape3" transform="matrix(-1.0000001025694 0 0 -1.0000001025694 92.1600094527953 92.1600094527949)" fill="none" stroke="#ffffff" stroke-width="6.58285714285714" stroke-linecap="round" stroke-linejoin="miter" stroke-miterlimit="2.05714297294617" d="M0 0L65.8286 0"/><path id="shape4" transform="matrix(-1.0000001025694 0 0 -1.0000001025694 26.3314312722271 92.1600094527948)" fill="none" stroke="#ffffff" stroke-width="6.58285714285714" stroke-linecap="round" stroke-linejoin="miter" stroke-miterlimit="2.05714297294617" d="M0 0L13.1657 13.1657"/><path id="shape5" transform="matrix(1.00000010256939 0 0 1.00000010256939 39.4971469083407 72.4114359986245)" fill="none" stroke="#ffffff" stroke-width="3.29142857142857" stroke-linecap="round" stroke-linejoin="miter" stroke-miterlimit="2.05714297294617" d="M0 0L0 19.7486"/><path id="shape6" transform="matrix(1.00000010256939 0 0 1.00000010256939 65.8285781805676 72.4114359986245)" fill="none" stroke="#ffffff" stroke-width="3.29142857142857" stroke-linecap="round" stroke-linejoin="miter" stroke-miterlimit="2.05714297294617" d="M0 0L0 19.7486"/><path id="shape7" transform="matrix(1.00000010256939 0 0 1.00000010256939 39.4971469083407 72.3030424005931)" fill="none" stroke="#ffffff" stroke-width="3.29142857142857" stroke-linecap="round" stroke-linejoin="miter" stroke-miterlimit="2.05714297294617" d="M26.3314 0L0 0"/><circle id="shape01" transform="matrix(1.00000006837959 0 0 1.00000006837959 39.4971455579414 32.9142879649511)" r="13.1657142857143" cx="13.1657142857143" cy="13.1657142857143" fill="none" stroke="#ffffff" stroke-width="3.29142857142857" stroke-linecap="square" stroke-linejoin="bevel"/>
</svg>
