<?xml version="1.0" standalone="no"?>
<!DOCTYPE svg PUBLIC "-//W3C//DTD SVG 20010904//EN" "http://www.w3.org/TR/2001/REC-SVG-20010904/DTD/svg10.dtd">
<!-- Created using Krita: https://krita.org -->
<svg xmlns="http://www.w3.org/2000/svg" 
    xmlns:xlink="http://www.w3.org/1999/xlink"
    xmlns:krita="http://krita.org/namespaces/svg/krita"
    xmlns:sodipodi="http://sodipodi.sourceforge.net/DTD/sodipodi-0.dtd"
    width="105.326pt"
    height="105.326pt"
    viewBox="0 0 105.326 105.326">
<defs/>
<path id="shape0" transform="matrix(-1.0000000341898 0 0 -1.0000000341898 92.160003150932 92.1600031509316)" fill="none" stroke="#ffffff" stroke-width="6.58285714285714" stroke-linecap="round" stroke-linejoin="miter" stroke-miterlimit="2.05714297294617" d="M0 0L0 78.9943"/><path id="shape1" transform="matrix(-1.0000000341898 0 0 -1.0000000341898 92.1600031509318 13.165714735847)" fill="none" stroke="#ffffff" stroke-width="6.58285714285714" stroke-linecap="round" stroke-linejoin="miter" stroke-miterlimit="2.05714297294617" d="M0 0L78.9943 0"/><path id="shape2" transform="matrix(-1.0000000341898 0 0 -1.0000000341898 13.1657147358475 78.9942884150841)" fill="none" stroke="#ffffff" stroke-width="6.58285714285714" stroke-linecap="round" stroke-linejoin="miter" stroke-miterlimit="2.05714297294617" d="M0 65.8286L0 0"/><path id="shape3" transform="matrix(-1.0000000341898 0 0 -1.0000000341898 92.160003150932 92.1600031509316)" fill="none" stroke="#ffffff" stroke-width="6.58285714285714" stroke-linecap="round" stroke-linejoin="miter" stroke-miterlimit="2.05714297294617" d="M0 0L65.8286 0"/><path id="shape4" transform="matrix(-1.0000000341898 0 0 -1.0000000341898 26.3314294716947 92.1600031509315)" fill="none" stroke="#ffffff" stroke-width="6.58285714285714" stroke-linecap="round" stroke-linejoin="miter" stroke-miterlimit="2.05714297294617" d="M0 0L13.1657 13.1657"/><path id="shape5" transform="matrix(1.00000003418979 0 0 1.00000003418979 39.4971442075421 72.4114310471605)" fill="none" stroke="#ffffff" stroke-width="3.29142857142857" stroke-linecap="round" stroke-linejoin="miter" stroke-miterlimit="2.05714297294617" d="M0 0L0 19.7486"/><path id="shape6" transform="matrix(1.00000003418979 0 0 1.00000003418979 65.8285736792367 72.4114310471605)" fill="none" stroke="#ffffff" stroke-width="3.29142857142857" stroke-linecap="round" stroke-linejoin="miter" stroke-miterlimit="2.05714297294617" d="M0 0L0 19.7486"/><path id="shape7" transform="matrix(1.00000003418979 0 0 1.00000003418979 39.4971442075421 72.303037456541)" fill="none" stroke="#ffffff" stroke-width="3.29142857142857" stroke-linecap="round" stroke-linejoin="miter" stroke-miterlimit="2.05714297294617" d="M26.3314 0L0 0"/><ellipse id="shape0" transform="translate(39.4971428571429, 32.9142857142857)" rx="13.1657142857143" ry="13.1657142857143" cx="13.1657142857143" cy="13.1657142857143" fill="none" stroke="#ffffff" stroke-width="3.29142857142857" stroke-linecap="square" stroke-linejoin="bevel"/>
</svg>
